<?xml version="1.0" encoding="utf-8"?>
<!-- Generator: Adobe Illustrator 25.4.1, SVG Export Plug-In . SVG Version: 6.00 Build 0)  -->
<svg version="1.1" id="Ebene_1" xmlns="http://www.w3.org/2000/svg" xmlns:xlink="http://www.w3.org/1999/xlink" x="0px" y="0px"
	 viewBox="0 0 27.8 26.8" style="enable-background:new 0 0 27.8 26.8;" xml:space="preserve">
<style type="text/css">
	.st0{fill:#E10085;}
	.st1{fill:#00A3D9;}
</style>
<path class="st0" d="M19,22.2L1.1,9.8c-1.9-1.2-1.2-3.8,1-4.5l19.1-5.2c1.4-0.5,3,0.2,3.5,1.6c0.1,0.3,0.2,0.6,0.2,0.9l-1.1,17.5
	C23.5,22.3,20.8,23.4,19,22.2z"/>
<path class="st1" d="M13.3,25.2L2.7,4.6C2,3.2,2.6,1.4,4,0.7c0.5-0.3,1.2-0.4,1.8-0.3l19.6,3c1.6,0.2,2.7,1.7,2.4,3.3
	c0,0.3-0.1,0.6-0.3,0.9l-9,17.6c-0.7,1.4-2.5,2-3.9,1.2C14,26.2,13.6,25.8,13.3,25.2z"/>
<path d="M24.8,3.3L15,1.8L3,5.1l4.8,9.4L19,22.2c0.2,0.2,0.5,0.3,0.8,0.4l4.3-8.3L24.8,3.3z"/>
</svg>
