<?xml version="1.0" encoding="utf-8"?>
<!-- Generator: Adobe Illustrator 25.4.1, SVG Export Plug-In . SVG Version: 6.00 Build 0)  -->
<svg version="1.1" id="Ebene_1" xmlns="http://www.w3.org/2000/svg" xmlns:xlink="http://www.w3.org/1999/xlink" x="0px" y="0px"
	 viewBox="0 0 133.8 26.8" style="enable-background:new 0 0 133.8 26.8;" xml:space="preserve">
<style type="text/css">
	.st0{fill:#E10085;}
	.st1{fill:#00A3D9;}
</style>
<path class="st0" d="M19,22.2L1.1,9.8c-1.9-1.2-1.2-3.8,1-4.5l19.1-5.2c1.4-0.5,3,0.2,3.5,1.6c0.1,0.3,0.2,0.6,0.2,0.9l-1.1,17.5
	C23.5,22.3,20.8,23.4,19,22.2z"/>
<path class="st1" d="M13.3,25.2L2.7,4.6C2,3.2,2.6,1.4,4,0.7c0.5-0.3,1.2-0.4,1.8-0.3l19.6,3c1.6,0.2,2.7,1.7,2.4,3.3
	c0,0.3-0.1,0.6-0.3,0.9l-9,17.6c-0.7,1.4-2.5,2-3.9,1.2C14,26.2,13.6,25.8,13.3,25.2z"/>
<path d="M24.8,3.3L15,1.8L3,5.1l4.8,9.4L19,22.2c0.2,0.2,0.5,0.3,0.8,0.4l4.3-8.3L24.8,3.3z"/>
<path d="M74.2,5.8C74.2,4.8,75,4,76,4s1.8,0.8,1.8,1.8S77,7.6,76,7.6l0,0C75,7.6,74.2,6.8,74.2,5.8z M74.5,8.5h3.1v10.2h-3.1V8.5z"
	/>
<path d="M90.8,13.6c0.1,2.8-2,5.2-4.8,5.4l0,0c-1.1,0.1-2.3-0.4-3-1.2v5h-3.1V8.5H83v1c0.8-0.8,1.9-1.3,3-1.2
	C88.7,8.3,90.9,10.7,90.8,13.6L90.8,13.6z M87.7,13.6c0-1.3-1.1-2.4-2.5-2.4c-1.3,0-2.4,1.1-2.4,2.5c0,1.3,1.1,2.4,2.4,2.4
	c1.3,0.1,2.4-0.9,2.4-2.2C87.7,13.8,87.7,13.7,87.7,13.6z"/>
<path d="M100.2,15.6c0,2.3-2,3.3-4.2,3.3c-1.8,0.2-3.6-0.8-4.4-2.4l2.7-1.5c0.2,0.8,0.9,1.3,1.7,1.2c0.7,0,1.1-0.2,1.1-0.6
	c0-1.1-5-0.5-5-4.1c0-2.2,1.9-3.3,4-3.3c1.6-0.1,3.1,0.8,4,2.2l-2.6,1.4c-0.2-0.5-0.8-0.9-1.4-0.9c-0.5,0-0.9,0.2-0.9,0.6
	C95.2,12.6,100.2,11.9,100.2,15.6z"/>
<path d="M111.4,8.5v10.2h-3.1v-1c-0.7,0.9-1.8,1.3-2.9,1.2c-2.1,0-3.8-1.5-3.8-4.2V8.5h3.1v5.8c-0.1,0.9,0.6,1.8,1.5,1.8
	c0.1,0,0.2,0,0.3,0c1.1,0,1.9-0.7,1.9-2.1V8.5H111.4z"/>
<path d="M128.9,12.4v6.3h-3.1v-6c0-1-0.5-1.7-1.5-1.7s-1.6,0.7-1.6,1.9v5.7h-3.1v-6c0-1-0.5-1.7-1.5-1.7s-1.6,0.7-1.6,1.9v5.7h-3.1
	v-10h3.1v0.9c0.6-0.8,1.7-1.3,2.7-1.2c1.1-0.1,2.1,0.5,2.7,1.3c0.7-0.9,1.8-1.4,3-1.3C127.4,8.2,128.9,9.9,128.9,12.4z"/>
<circle cx="131.5" cy="6.2" r="2.3"/>
<path d="M32.5,3.8h3.1v14.9h-3.1V3.8z M37.3,13.6c0-3,2.4-5.4,5.4-5.4s5.4,2.4,5.4,5.4S45.7,19,42.7,19l0,0
	C39.7,19,37.3,16.6,37.3,13.6C37.3,13.7,37.3,13.6,37.3,13.6z M45,13.6c0-1.3-1.1-2.3-2.4-2.3c-1.3,0-2.3,1.1-2.3,2.4
	s1.1,2.3,2.3,2.3c1.3,0,2.3-1,2.4-2.2C45,13.7,45,13.7,45,13.6L45,13.6z M60.3,8.5v9.7c0,3.4-2.7,4.9-5.4,4.9
	c-1.9,0.1-3.8-0.8-4.8-2.5l2.6-1.5c0.4,0.9,1.4,1.4,2.3,1.3c1.1,0.2,2.1-0.6,2.3-1.7c0-0.1,0-0.3,0-0.4v-0.9c-0.7,0.9-1.8,1.4-3,1.3
	c-2.9-0.1-5.1-2.5-5-5.3c0.1-2.7,2.3-4.9,5-5c1.1-0.1,2.3,0.4,3,1.3v-1L60.3,8.5z M57.3,13.4c0.1-1.4-1-2.5-2.4-2.6s-2.5,1-2.6,2.4
	s1,2.5,2.4,2.6h0.1c1.3,0.1,2.4-0.9,2.5-2.1C57.3,13.5,57.3,13.5,57.3,13.4L57.3,13.4z M62,13.6c0-3,2.4-5.4,5.4-5.4
	s5.4,2.4,5.4,5.4S70.4,19,67.4,19l0,0C64.4,19,62,16.6,62,13.6C62,13.7,62,13.6,62,13.6L62,13.6z M69.7,13.6c0-1.3-1.1-2.3-2.4-2.3
	S65,12.4,65,13.7s1.1,2.3,2.3,2.3c1.3,0,2.3-1,2.3-2.2C69.7,13.7,69.7,13.7,69.7,13.6L69.7,13.6z"/>
</svg>
